<svg id="Layer_1" data-name="Layer 1" xmlns="http://www.w3.org/2000/svg" viewBox="0 0 500 500"><defs><style>.cls-1{fill:#c9d7de;}.cls-2{fill:#4c5a5f;}.cls-3{fill:#00b4bb;}.cls-4{fill:#79808c;}.cls-5{fill:none;}</style></defs><path class="cls-1" d="M318.66,242.19c-3.51-4.35-6.85-8.53-10.25-12.67-1.67-2-3.41-4-5.17-6-.59-.66-.73-1.15,0-1.79,2.18-1.95,4.31-3.94,6.5-5.87,3.58-3.14,7.19-6.24,10.79-9.36a2.2,2.2,0,0,0,.27-.26c1.34-1.75,2.95-1.41,4.73-.76,3.31,1.2,6.66,2.27,10,3.38,1.9.64,3.83,1.22,5.71,1.9a1.07,1.07,0,0,1,.31,1c-1,1.73-2,3.41-3,5.11l-15.14,25c-.28.47-.52,1-.77,1.43,1.24,1.14,1.27,1.18.07,2.31-4.54,4.27-9,8.64-13.68,12.75-6.37,5.59-12.82,11.1-19.44,16.38-2,1.57-2.15,3.69-3,5.59-1.29,2.83-2.3,5.79-3.43,8.69-.39,1-.79,1.41-2.07.86a50.67,50.67,0,0,0-6.38-2c-2.78-.78-5.58-1.49-8.36-2.27-1.41-.39-1.6-.92-1.15-2.32,2.2-6.9,4.37-13.81,6.56-20.71,1.43-4.52,2.83-9,4.31-13.54,1.12-3.41,1.11-7,1.35-10.46.28-4,.58-8,.86-12a3.35,3.35,0,0,0,0-.63c-.07-.92.52-1.4,1.37-1,3.93,1.75,7.83,3.58,11.78,5.31,4.49,2,9,3.85,13.52,5.77l12.38,5.32A15.3,15.3,0,0,1,318.66,242.19Z"/><path class="cls-1" d="M184.05,241.21c12.95-5.1,26.16-10.31,39.37-15.5.24-.09.57,0,1,.07v3.44c0,5.19-.34,10.41.09,15.56.27,3.25,1.67,6.42,2.56,9.62,1.07,3.84,2.12,7.69,3.19,11.53q1.94,6.93,3.88,13.84c.33,1.17.71,2.33,1.05,3.5s0,1.82-1.21,2.09c-4.12.92-8.24,1.81-12.37,2.73a25.59,25.59,0,0,0-2.57.68,1.8,1.8,0,0,1-2.42-1.22q-2.13-5-4.15-10.15a9.86,9.86,0,0,0-2.82-4.06c-7-6-14-12.12-21-18.19-2.26-2-4.45-4-6.78-5.87-1.37-1.09-1.16-2.39-1-3.77.07-.8.47-1.71-.73-2.11-.1,0,0-.61,0-.93s.15-.78,0-1.05c-2.65-4.95-5.37-9.87-8-14.83-3-5.65-5.93-11.35-9.06-17.35,1.23-.38,2.31-.74,3.4-1,4.86-1.34,9.7-2.7,14.58-4a2.37,2.37,0,0,1,2.49.69c3.35,3.45,6.86,6.73,10.28,10.11,2.16,2.13,4.25,4.34,6.38,6.49.69.71,0,1.17-.31,1.59-1.63,2-3.28,3.93-5,5.86C191.2,233.14,187.52,237.29,184.05,241.21Zm32,16.58a4.52,4.52,0,0,0-4.31-4.84,4.28,4.28,0,0,0-4.52,4.16,4.53,4.53,0,0,0,4.31,4.72A4.36,4.36,0,0,0,216.07,257.79Zm-21.49-13a3.68,3.68,0,0,0-3.76,3.88,4,4,0,0,0,3.94,4.22c2,0,3.46-1.78,3.54-4.29A3.78,3.78,0,0,0,194.58,244.83Zm27.08,32.5a3.75,3.75,0,0,0,3.92-3.63,4.11,4.11,0,0,0-3.9-4.16,3.81,3.81,0,0,0-3.65,3.78A3.76,3.76,0,0,0,221.66,277.33Z"/><path class="cls-2" d="M246.71,212.54c4.95,0,9.9,0,14.85,0,.81,0,1.3.18,1.55,1.08,1.11,4.06,2.28,8.09,3.46,12.12s2.31,7.84,3.5,11.75a11.16,11.16,0,0,1,0,7c-2.88,9-5.53,18.16-8.32,27.23-3.26,10.64-6.57,21.27-9.85,31.91-.41,1.33-.69,2.71-1.2,4-.26.66-.84,1.56-1.39,1.65-1,.17-1.16-.91-1.37-1.67-.66-2.4-1.29-4.81-1.92-7.22-1.38-5.3-2.73-10.6-4.12-15.89q-2.34-8.87-4.75-17.7c-2.08-7.64-4.1-15.3-6.32-22.89a13.12,13.12,0,0,1,.54-8.51q3.81-10.65,7.51-21.34c.42-1.21.88-1.9,2.36-1.77,1.8.17,3.64,0,5.46,0Zm-11.59,25.89,29.71.52v-5H235.12Z"/><path class="cls-1" d="M235.12,238.43v-4.51h29.71v5Z"/><path class="cls-2" d="M216.07,257.79a4.36,4.36,0,0,1-4.52,4,4.53,4.53,0,0,1-4.31-4.72,4.28,4.28,0,0,1,4.52-4.16A4.52,4.52,0,0,1,216.07,257.79Z"/><path class="cls-2" d="M194.58,244.83a3.78,3.78,0,0,1,3.72,3.81c-.08,2.51-1.56,4.31-3.54,4.29a4,4,0,0,1-3.94-4.22A3.68,3.68,0,0,1,194.58,244.83Z"/><path class="cls-2" d="M221.66,277.33a3.76,3.76,0,0,1-3.63-4,3.81,3.81,0,0,1,3.65-3.78,4.11,4.11,0,0,1,3.9,4.16A3.75,3.75,0,0,1,221.66,277.33Z"/><path class="cls-2" d="M356.19,192.28a5.09,5.09,0,0,1-4.85,5.15,4.82,4.82,0,0,1-4.73-4.93,4.71,4.71,0,0,1,4.66-4.94A4.76,4.76,0,0,1,356.19,192.28Z"/><path class="cls-3" d="M357.15,206.16l-6.66-1.49-4.53-1c-1.9-.43-3.8-.85-5.7-1.3-2.72-.64-5.44-1.28-8.15-1.95-1.23-.3-1.42-.62-.75-1.72,2.69-4.43,5.42-8.84,8.15-13.25a14.22,14.22,0,0,0,1.4-2.07c.63-1.6,1.93-1.75,3.32-1.87,2.06-.17,4.12-.31,6.17-.56,4-.5,7.9-1.06,11.85-1.59,3.54-.48,7.1-.91,10.63-1.44,3-.44,5.89-1,8.84-1.5,2-.34,4-.64,6.08-1a74.9,74.9,0,0,0,14.39-4c3.46-1.25,6.95-2.43,10.43-3.63,4.36-1.5,8.72-3,13.07-4.49,2.69-.94,5.36-2,8.05-2.89a6.2,6.2,0,0,1,2.09-.31,1.54,1.54,0,0,1,1.11.58c.13.21-.09.79-.32,1.06-1.88,2.25-3.82,4.46-5.72,6.7-3.81,4.47-7.63,8.93-11.41,13.43-3.42,4.08-6.83,8.16-10.16,12.32a6.53,6.53,0,0,1-4.09,2.22c-3.5.72-7,1.53-10.46,2.27q-6.9,1.45-13.83,2.87c-3.39.69-6.79,1.34-10.2,2L358,206.07C357.78,206.11,357.57,206.12,357.15,206.16Zm-1-13.88a4.76,4.76,0,0,0-4.92-4.72,4.71,4.71,0,0,0-4.66,4.94,4.82,4.82,0,0,0,4.73,4.93A5.09,5.09,0,0,0,356.19,192.28Z"/><path class="cls-3" d="M153.81,228.87c-2.87,0-5.53-.06-8.18,0-7.43.21-14.86.49-22.29.71-4.19.13-8.38.18-12.57.29a17.16,17.16,0,0,0-2.78.17c-2.19.4-3.34-1.23-4.57-2.44-6.91-6.82-13.74-13.72-20.58-20.61q-3.14-3.17-6.17-6.46a3.71,3.71,0,0,1-.48-1.31c.46-.14,1-.46,1.38-.39,1.81.32,3.61.74,5.42,1.14l9.32,2.08c4.72,1.05,9.44,2.07,14.16,3.12L121,208.44c4.93,1.1,9.86,2.22,14.79,3.29,3.39.74,6.8,1.4,10.2,2.1a2.6,2.6,0,0,1,2.15,1.52c1.79,4.17,3.62,8.31,5.42,12.47A9,9,0,0,1,153.81,228.87Z"/><path class="cls-3" d="M390.51,234.43c-2.66,0-5.33.12-8,0-4.76-.25-9.5-.67-14.26-1q-9.15-.63-18.31-1.24c-.95-.06-.94-.6-.66-1.21,1.39-3,2.79-5.94,4.23-8.89.73-1.51,1.53-3,2.33-4.47a1.48,1.48,0,0,1,.77-.72c3.62-.71,7.25-1.4,10.88-2,4.12-.71,8.25-1.36,12.37-2,1.65-.27,3.31-.5,4.95-.82,2.36-.45,4.71-1,7.06-1.48,3.22-.69,6.44-1.35,9.65-2.09,4-.94,8-2,12-2.91,2.78-.65,5.57-1.28,8.37-1.84a4.13,4.13,0,0,1,1.5.28,4.81,4.81,0,0,1-.7,1.24q-8,7.71-16,15.36-6.27,6-12.54,12a25.69,25.69,0,0,1-2.27,2,3.72,3.72,0,0,1-1.29.36Z"/><path class="cls-3" d="M159.07,238.66c1.38-.29,2.2.53,3,1.45q3.93,4.53,7.9,9c.83.93.74,1.32-.46,1.64-4.15,1.09-8.31,2.13-12.44,3.27-5.11,1.4-10.2,2.89-15.31,4.31a1.62,1.62,0,0,1-1.06-.13q-4.8-2.39-9.57-4.84-5.62-2.9-11.24-5.83a15.55,15.55,0,0,1-1.86-1.08,4.17,4.17,0,0,1-.73-.92c.3-.19.57-.49.89-.55,2.73-.51,5.46-1,8.2-1.45q8.49-1.28,17-2.46c1.79-.25,3.6-.35,5.38-.65,2.9-.48,5.77-1.08,8.66-1.62C158,238.72,158.52,238.71,159.07,238.66Z"/><path class="cls-3" d="M68.36,164.07c1.18-.5.72-1.07.25-1.63-1.71-2-3.44-4.05-5.13-6.1a4.4,4.4,0,0,1-.46-1.18,3.12,3.12,0,0,1,1.23-.12c6.89,2.27,13.76,4.59,20.64,6.89,7.27,2.43,14.51,5,21.83,7.23a88.76,88.76,0,0,0,9.37,1.88q5.76,1.11,11.52,2.2c3.47.66,6.94,1.28,10.41,1.92,2.32.43,4.63.88,6.95,1.29,3.9.68,7.81,1.33,11.71,2,1.37.23,2.74.47,4.09.77a1.34,1.34,0,0,1,.71.64c2.53,4.42,5,8.84,7.54,13.26.58,1,1.19,2,1.75,3a9.52,9.52,0,0,1,.77,1.73c.19.63.05,1-.78,1.23-4.14,1.14-8.26,2.39-12.39,3.63-2.28.69-4.58,1.37-6.83,2.17-1.41.5-2.64-.1-3.91-.37-3.3-.71-6.58-1.48-9.86-2.27-3.87-.93-7.71-2-11.58-2.86-3.34-.79-6.71-1.43-10-2.21s-6.73-1.69-10.1-2.5c-2.93-.7-5.87-1.35-8.81-2a27.4,27.4,0,0,1-3.63-.86,5,5,0,0,1-2-1.46q-7.84-9.45-15.61-19c-1.81-2.2-3.6-4.42-5.45-6.59a3,3,0,0,0-1.29-.59A5.05,5.05,0,0,0,68.36,164.07ZM169.3,197.45a3.63,3.63,0,0,0-.14-.58c-2.91-5.21-5.81-10.42-8.79-15.58-.2-.34-1.17-.5-1.67-.35-4.56,1.3-9.13,2.57-13.61,4.09a14.13,14.13,0,0,1-8,.43c-7.58-1.76-15.2-3.3-22.8-5-6.44-1.42-12.87-2.91-19.3-4.34-4.94-1.11-9.88-2.18-15-3.32.25.36.36.53.49.69,4.25,5.14,8.49,10.29,12.79,15.39a3.78,3.78,0,0,0,1.86,1.17c4.68,1.16,9.39,2.21,14.08,3.33s9.14,2.24,13.72,3.33c2.2.52,4.42,1,6.63,1.47l11.42,2.69c2.09.49,4.17,1,6.27,1.45s3.9.82,6-.07a78.2,78.2,0,0,1,8.12-2.37C164,199.13,166.61,198.28,169.3,197.45Z"/><path class="cls-3" d="M175.33,256.23a3.47,3.47,0,0,1,.61.4c2.07,1.91,4.12,3.85,6.19,5.76.69.63.64,1.08-.18,1.54-3.62,2.05-7.23,4.13-10.85,6.19-1.5.86-3,1.69-4.49,2.58a2.13,2.13,0,0,1-2.24.05c-3-1.37-6-2.61-9-3.93-1.39-.6-2.77-1.21-4.1-1.93-.86-.46-.7-1.12.1-1.49q2.59-1.2,5.25-2.27Q162,261,167.5,258.89c2.42-.91,4.87-1.74,7.31-2.59A2.94,2.94,0,0,1,175.33,256.23Z"/><path class="cls-3" d="M329.75,252.61c3.39-3.56,6.63-6.91,9.79-10.33a2.25,2.25,0,0,1,2.37-.71c4.48.91,9,1.87,13.44,2.79,6.53,1.34,13.07,2.65,19.61,4,1.34.27,2.67.62,4,.94l.12.4c-.52.32-1,.65-1.57.94-6,3.27-12,6.46-17.91,9.86a4.65,4.65,0,0,1-4.16.29c-4.54-1.45-9.1-2.85-13.67-4.23-3.69-1.11-7.41-2.14-11.11-3.25C330.34,253.21,330.1,252.88,329.75,252.61Z"/><path class="cls-3" d="M349.31,267.43c-1.79.92-3.57,1.85-5.37,2.75-2.52,1.27-5,2.54-7.59,3.73a2.13,2.13,0,0,1-1.66,0c-5.47-3-10.91-6-16.37-9-.72-.4-.83-.72-.18-1.3,2.37-2.16,4.69-4.39,7.12-6.48a2.21,2.21,0,0,1,1.83.05c5.7,2.42,11.39,4.9,17.07,7.39,1.74.76,3.44,1.61,5.16,2.42Z"/><path class="cls-3" d="M153,213.53c2.34-.95,4.52-1.88,6.73-2.73,1-.37,1.58.15,2,1q1.55,3.22,3.17,6.42c2.13,4.23,4.26,8.45,6.43,12.65,2.35,4.55,4.75,9.07,7.14,13.6a11.8,11.8,0,0,1,.89,1.52c.12.34-.08.79-.14,1.19-.36-.07-.86,0-1.06-.22-2.05-2.17-4.15-4.31-6-6.62-2.89-3.55-5.72-7.16-8.39-10.88-3.51-4.9-6.85-9.92-10.25-14.9A7.3,7.3,0,0,1,153,213.53Z"/><path class="cls-3" d="M185.74,265.74a6.46,6.46,0,0,1,1,.69c2.56,2.49,5.09,5,7.63,7.49.66.66.43,1.12-.32,1.44q-4.5,2-9,3.88c-1.28.55-2.57,1.09-3.89,1.52a2.57,2.57,0,0,1-1.71,0c-3-1.33-5.87-2.74-8.78-4.17-.38-.18-.85-.59-.89-.93s.42-.78.76-1c4.7-2.75,9.42-5.46,14.13-8.2C185,266.29,185.31,266,185.74,265.74Z"/><path class="cls-3" d="M351.83,216c-1.46,2-2.79,4-4.21,5.85-3.74,4.94-7.43,9.92-11.32,14.74-2.85,3.53-6,6.86-9,10.23-.31.35-1,.35-1.52.51,0-.51-.12-1.1.1-1.51q2.68-5.23,5.51-10.41c3.14-5.75,6.32-11.47,9.49-17.2,1-1.84,2-3.66,3.09-5.49.42-.74.85-.93,1.72-.36C347.58,213.65,349.62,214.74,351.83,216Z"/><path class="cls-3" d="M331.61,277c-.85.43-1.67.9-2.54,1.27-3,1.25-6,2.5-9,3.67a2.48,2.48,0,0,1-1.78-.05c-4-1.92-7.9-3.92-11.85-5.87-.94-.46-1-.9-.18-1.56,2.6-2.22,5.2-4.45,7.76-6.73a1.32,1.32,0,0,1,1.8-.12q6.51,3.81,13.05,7.57c.86.5,1.76.94,2.64,1.4Z"/><path class="cls-3" d="M191.28,286.51c.64-.49.94-.91,1.32-1a52.67,52.67,0,0,1,7.78-1.45,18.08,18.08,0,0,1,9.36,2.25c.85.44.95,1.05.18,1.32-2.65.92-5.2,2.53-8.11,2.07a62.84,62.84,0,0,1-7.45-2C193.44,287.48,192.58,287,191.28,286.51Z"/><path class="cls-3" d="M310.09,287.25a19.88,19.88,0,0,1-1.92.84c-2.52.79-5.06,1.57-7.59,2.32-1.9.57-3.68-.23-5.47-.63-1.51-.34-3-.85-4.48-1.31-.23-.08-.41-.33-.62-.51.19-.22.34-.58.58-.66,2.74-.86,5.49-2.32,8.24-2.33,3.57,0,7.14,1.14,10.7,1.8C309.63,286.79,309.71,286.92,310.09,287.25Z"/><path class="cls-3" d="M169.3,197.45c-2.69.83-5.32,1.68-8,2.46a78.2,78.2,0,0,0-8.12,2.37c-2.12.89-4,.49-6,.07s-4.18-1-6.27-1.45l-11.42-2.69c-2.21-.51-4.43-1-6.63-1.47-4.58-1.09-9.15-2.24-13.72-3.33s-9.4-2.17-14.08-3.33a3.78,3.78,0,0,1-1.86-1.17c-4.3-5.1-8.54-10.25-12.79-15.39-.13-.16-.24-.33-.49-.69C85.07,174,90,175,95,176.15c6.43,1.43,12.86,2.92,19.3,4.34,7.6,1.67,15.22,3.21,22.8,5a14.13,14.13,0,0,0,8-.43c4.48-1.52,9-2.79,13.61-4.09.5-.15,1.47,0,1.67.35,3,5.16,5.88,10.37,8.79,15.58A3.63,3.63,0,0,1,169.3,197.45Z"/><path class="cls-3" d="M131,341.17V316.5h11.81a4.77,4.77,0,0,1,3.51,1.49,4.83,4.83,0,0,1,1.48,3.54v6.24a5,5,0,0,1-5,5h-8.44v8.41a1.67,1.67,0,0,1-1.67,1.66,1.63,1.63,0,0,1-1.2-.49A1.57,1.57,0,0,1,131,341.17Zm3.37-11.73h8.44A1.59,1.59,0,0,0,144,329a1.57,1.57,0,0,0,.49-1.18v-6.24a1.6,1.6,0,0,0-.49-1.18,1.62,1.62,0,0,0-1.17-.48h-8.44Z"/><path class="cls-3" d="M160.47,330.82H167a7.25,7.25,0,0,1,1.55.24l0-2.36a1.66,1.66,0,0,0-1.66-1.66H160.5a1.57,1.57,0,0,1-1.17-.5,1.66,1.66,0,0,1,1.17-2.83h6.33a4.79,4.79,0,0,1,3.52,1.45,5,5,0,0,1,1.52,3.54l.42,12.47a1.57,1.57,0,0,1-.5,1.17,1.59,1.59,0,0,1-1.17.49,1.65,1.65,0,0,1-1.21-.49,1.56,1.56,0,0,1-.49-1.17l-2.82,1.66h-5.63a5,5,0,0,1-5-5v-1.94a5.05,5.05,0,0,1,5-5Zm8.32,6.48-.1-1.4a1.68,1.68,0,0,0-.49-1.19,1.59,1.59,0,0,0-1.17-.48h-6.57a1.66,1.66,0,0,0-1.66,1.67v1.86a1.67,1.67,0,0,0,1.66,1.66h4.7Z"/><path class="cls-3" d="M187.89,327.57l-4.55,3v10.64a1.67,1.67,0,0,1-3.33,0V325.38a1.67,1.67,0,0,1,.49-1.2,1.61,1.61,0,0,1,2.35,0,1.63,1.63,0,0,1,.49,1.2v1.11l3-1.85a6.36,6.36,0,0,1,3.45-1h1.55a4.76,4.76,0,0,1,3.43,1.41,4.89,4.89,0,0,1,1.53,3.46l.45,12.63a1.5,1.5,0,0,1-.47,1.16,1.63,1.63,0,0,1-1.19.5,1.65,1.65,0,0,1-1.15-.45,1.58,1.58,0,0,1-.51-1.21l-.5-12.43a1.61,1.61,0,0,0-1.83-1.74h-1.62A3,3,0,0,0,187.89,327.57Z"/><path class="cls-3" d="M209.48,330.82H216a7.26,7.26,0,0,1,1.54.24l0-2.36a1.67,1.67,0,0,0-1.67-1.66h-6.33a1.67,1.67,0,1,1,0-3.33h6.33a4.82,4.82,0,0,1,3.53,1.45,5,5,0,0,1,1.51,3.54l.42,12.47a1.57,1.57,0,0,1-.5,1.17,1.59,1.59,0,0,1-1.16.49,1.64,1.64,0,0,1-1.21-.49,1.57,1.57,0,0,1-.5-1.17l-2.82,1.66h-5.63a5,5,0,0,1-5-5v-1.94a5.05,5.05,0,0,1,5-5Zm8.32,6.48-.1-1.4a1.64,1.64,0,0,0-.49-1.19,1.59,1.59,0,0,0-1.17-.48h-6.57a1.66,1.66,0,0,0-1.66,1.67v1.86a1.67,1.67,0,0,0,1.66,1.66h4.7Z"/><path class="cls-4" d="M232.43,318.16V326l1.47-1.17a4.43,4.43,0,0,1,2.87-1.15h3a4.36,4.36,0,0,1,3,1.15l1.59,1.37a4.12,4.12,0,0,1,1.08,1.64,5.75,5.75,0,0,1,.43,2.1v6.74a5.33,5.33,0,0,1-.4,1.92,4.19,4.19,0,0,1-.91,1.49l-1.45,1.36a5,5,0,0,1-1.58,1,4.66,4.66,0,0,1-1.75.43H237q-2.08,0-4.54-2.32v.66a1.66,1.66,0,1,1-3.32,0v-23a1.56,1.56,0,0,1,.49-1.17,1.66,1.66,0,0,1,2.83,1.17Zm7.14,8.88h-2.3a1.89,1.89,0,0,0-1.27.38L233,330a2,2,0,0,0-.58,1.55v3.76a1.74,1.74,0,0,0,.66,1.39l2.67,2.26a1.8,1.8,0,0,0,1.21.53h2.71a1.48,1.48,0,0,0,1-.36l1.32-1.18a1.32,1.32,0,0,0,.54-1.13v-7a1.52,1.52,0,0,0-.54-1.26l-1.21-1A1.86,1.86,0,0,0,239.57,327Z"/><path class="cls-4" d="M270.29,329.71v7a5.54,5.54,0,0,1-2.11,4.14,6.44,6.44,0,0,1-4.35,1.9h-3.9a6.36,6.36,0,0,1-4.36-1.93,5.64,5.64,0,0,1-2.08-4.11v-7a5.68,5.68,0,0,1,2-4.11,6.35,6.35,0,0,1,4.41-1.93h3.9a6.34,6.34,0,0,1,4.35,1.86A5.58,5.58,0,0,1,270.29,329.71Zm-13.43.14v6.74a1.79,1.79,0,0,0,.65,1.45l1.25,1.06a1.74,1.74,0,0,0,1.17.36h3.86a2.27,2.27,0,0,0,1.55-.61l1-.89a1.58,1.58,0,0,0,.61-1.33v-6.74a1.71,1.71,0,0,0-.61-1.46l-1.17-.93a2.1,2.1,0,0,0-1.39-.5h-3.44a2.56,2.56,0,0,0-1.75.54l-1.13,1A1.69,1.69,0,0,0,256.86,329.85Z"/><path class="cls-4" d="M289.73,342.83H286.4a4.88,4.88,0,0,1-3.55-1.47,4.75,4.75,0,0,1-1.48-3.52V327h-1.71a1.59,1.59,0,0,1-1.17-.48,1.67,1.67,0,0,1,1.17-2.85h1.75v-4.08a1.64,1.64,0,0,1,1.66-1.66,1.61,1.61,0,0,1,1.16.49,1.58,1.58,0,0,1,.51,1.17v4.08h6.69a1.71,1.71,0,0,1,1.67,1.67,1.57,1.57,0,0,1-.5,1.17,1.59,1.59,0,0,1-1.17.49H284.7v10.8a1.57,1.57,0,0,0,.5,1.17,1.66,1.66,0,0,0,1.2.49h3.25a1.75,1.75,0,0,0,1.76-1.44,1.71,1.71,0,0,1,1.69-1.43,1.59,1.59,0,0,1,1.19.48,1.71,1.71,0,0,1,.47,1.22,4.37,4.37,0,0,1-1.42,3A4.75,4.75,0,0,1,289.73,342.83Z"/><path class="cls-4" d="M316,342.79H305.83a1.67,1.67,0,0,1-1.66-1.67,1.59,1.59,0,0,1,.49-1.16,1.57,1.57,0,0,1,1.17-.5h3.41V327h-3.37a1.57,1.57,0,0,1-1.18-.5,1.62,1.62,0,0,1-.48-1.16,1.66,1.66,0,0,1,.48-1.2,1.58,1.58,0,0,1,1.18-.51H311a1.55,1.55,0,0,1,1.17.51,1.63,1.63,0,0,1,.49,1.2v14.08h3.33a1.66,1.66,0,0,1,1.2.49,1.64,1.64,0,0,1,0,2.35A1.59,1.59,0,0,1,316,342.79ZM309.2,315H311a1.67,1.67,0,0,1,1.66,1.67v1.42a1.63,1.63,0,0,1-.49,1.2,1.55,1.55,0,0,1-1.17.51h-1.79a1.58,1.58,0,0,1-1.2-.52,1.53,1.53,0,0,1-.46-1.15l0-1.46a1.61,1.61,0,0,1,.48-1.18A1.64,1.64,0,0,1,309.2,315Z"/><path class="cls-4" d="M342.19,342.83h-7.11a4.78,4.78,0,0,1-3.21-1.13l-3.23-2.81a4.31,4.31,0,0,1-1.55-3.49v-4.34a4.5,4.5,0,0,1,1.74-3.68l2.92-2.52a4.64,4.64,0,0,1,3-1.15h7.47a1.66,1.66,0,0,1,1.66,1.67,1.58,1.58,0,0,1-.48,1.18,1.63,1.63,0,0,1-1.18.48h-7.15a2,2,0,0,0-1.29.53l-2.68,2.28a1.87,1.87,0,0,0-.65,1.49v4.06a1.42,1.42,0,0,0,.51,1.11l2.94,2.5a2.1,2.1,0,0,0,1.46.49h6.82a1.59,1.59,0,0,1,1.17.49,1.57,1.57,0,0,1,.49,1.18,1.66,1.66,0,0,1-1.66,1.66Z"/><path class="cls-4" d="M356.21,323.71h7.63a5,5,0,0,1,3.15,1.06,2.86,2.86,0,0,1,1.37,2.07,1.49,1.49,0,0,1-.51,1.17,1.64,1.64,0,0,1-1.12.46,1.92,1.92,0,0,1-1.44-.72,1.89,1.89,0,0,0-1.37-.71h-7.53c-.74,0-1.11.31-1.11.92a1.06,1.06,0,0,0,.74,1l8.85,3.94a5,5,0,0,1,2.21,1.92,5.23,5.23,0,0,1,.86,2.92,4.88,4.88,0,0,1-1.51,3.62,4.8,4.8,0,0,1-3.44,1.49h-6.74a5.54,5.54,0,0,1-3.24-1.05c-1-.7-1.49-1.38-1.49-2a1.64,1.64,0,0,1,.48-1.16,1.68,1.68,0,0,1,1.26-.51,2,2,0,0,1,1.36.72,2.87,2.87,0,0,0,2.09.71h6.2a1.59,1.59,0,0,0,1.23-.56,1.92,1.92,0,0,0,.49-1.3,1.69,1.69,0,0,0-1.11-1.63l-8.93-4a4.39,4.39,0,0,1-2-1.66,4.14,4.14,0,0,1-.7-2.22,4.36,4.36,0,0,1,1.24-3.09A4.07,4.07,0,0,1,356.21,323.71Z"/><rect class="cls-5" x="0.5" y="42" width="500" height="359"/></svg>